<svg width="28" height="69" viewBox="0 0 28 69" fill="none" xmlns="http://www.w3.org/2000/svg">
<path fill-rule="evenodd" clip-rule="evenodd" d="M15.4164 1.10463C11.6958 -0.493325 8.05507 0.636684 5.09376 4.2936C3.34343 6.45508 1.62463 9.68247 1.02225 11.6083C0.213877 14.1997 2.63129 13.6811 3.00549 12.7565C3.71558 10.9803 8.72629 6.25716 10.368 5.79718C11.6076 5.44845 12.3954 7.58463 12.9341 10.8507C15.1948 24.8121 13.8532 46.6137 13.8086 56.253C13.8086 56.253 10.6024 56.4865 10.0997 56.5164C8.3036 56.6017 7.93248 57.0086 8.82109 57.9154C9.4536 58.5733 14.6097 65.516 15.4276 66.8442C16.9336 69.2498 17.9463 69.2583 19.8594 66.8957C21.8516 64.4099 25.0943 60.1486 26.528 58.1468C28.094 55.9817 25.8989 55.2237 23.5372 55.288C22.7694 55.3112 22.123 55.2872 22.0955 55.2441C21.6731 54.5067 22.4888 50.236 22.227 21.6011C22.0742 7.78605 20.6182 3.34022 15.4164 1.10463ZM17.0449 5.00346C18.7394 7.56168 19.5445 14.4559 19.4632 25.6052C19.4136 32.6811 19.6592 42.3474 19.3472 47.255C19.208 49.4311 19.2248 53.4188 19.3591 55.4627C19.4069 56.3544 19.7039 59.071 20.6999 58.4835C20.895 58.371 21.5827 58.2412 22.2422 58.1719C23.6673 58.0566 23.6595 58.092 22.3413 59.7711C21.8451 60.4096 20.6586 62.0289 19.6859 63.3843C17.5619 66.3669 18.0192 66.3419 15.9446 63.5592C13.4919 60.2414 11.7465 58.1828 11.7202 57.9327C11.6837 57.6951 13.5756 57.6457 14.5517 57.8535C16.5164 58.2794 16.4782 58.3524 16.6059 53.0043C16.6487 50.8958 16.746 48.5402 16.7934 47.7879C17.5575 37.3371 16.9859 29.8205 16.9151 27.2871C16.7317 21.6038 16.2051 13.3122 15.9104 11.4922C14.2751 1.51206 7.83892 5.14328 7.54865 5.11631C7.74378 5.00382 12.3144 -2.15645 17.0449 5.00346Z" fill="#484848"/>
</svg>
